<?xml version="1.0" encoding="utf-8"?>
<!-- Generator: Adobe Illustrator 27.3.1, SVG Export Plug-In . SVG Version: 6.00 Build 0)  -->
<svg version="1.1" id="Layer_1" xmlns="http://www.w3.org/2000/svg" xmlns:xlink="http://www.w3.org/1999/xlink" x="0px" y="0px"
	 viewBox="0 0 1080 375.3" style="enable-background:new 0 0 1080 375.3;" xml:space="preserve">
<style type="text/css">
	.st0{fill:url(#SVGID_1_);}
	.st1{opacity:0.5;fill:url(#SVGID_00000034091018291094269710000017286592978029854867_);}
	.st2{fill:url(#SVGID_00000107575648932961806710000011503857988067785605_);}
	.st3{fill:url(#SVGID_00000085239389634866768590000006539798009270943125_);}
	.st4{fill:url(#SVGID_00000142858747483058298170000008060819755348244917_);}
	.st5{fill:url(#SVGID_00000062895313244673449410000014635900699488446380_);}
	.st6{fill:#FFFFFF;}
</style>
<g>
	<linearGradient id="SVGID_1_" gradientUnits="userSpaceOnUse" x1="327.418" y1="278.4945" x2="363.2384" y2="90.6458">
		<stop  offset="0" style="stop-color:#00AAB2"/>
		<stop  offset="0.1085" style="stop-color:#02A4AE"/>
		<stop  offset="0.2598" style="stop-color:#0691A1"/>
		<stop  offset="0.4354" style="stop-color:#0E748D"/>
		<stop  offset="0.5535" style="stop-color:#145C7C"/>
	</linearGradient>
	<path class="st0" d="M413.3,138.8c-38.5-0.2-62.6,35.7-78.2,60.8c-15.6-9.5-28.4-19.2-35.3-25.2c-3.7-3.1-7-6.4-9.9-9.7
		c7.4-11.3,13.6-20.4,23.9-35.1c16.3-23.3,41.5-40.5,72-40.5L413.3,138.8z"/>
	
		<linearGradient id="SVGID_00000183207440218559717620000003937422281937385622_" gradientUnits="userSpaceOnUse" x1="163.7192" y1="230.4854" x2="472.2831" y2="232.8129">
		<stop  offset="0" style="stop-color:#00AAB2"/>
		<stop  offset="8.884282e-02" style="stop-color:#04A4AC"/>
		<stop  offset="0.2127" style="stop-color:#0E9199"/>
		<stop  offset="0.3571" style="stop-color:#1F747C"/>
		<stop  offset="0.516" style="stop-color:#374B53"/>
		<stop  offset="0.5535" style="stop-color:#3D4048"/>
		<stop  offset="0.5542" style="stop-color:#145C7C"/>
	</linearGradient>
	<path style="opacity:0.5;fill:url(#SVGID_00000183207440218559717620000003937422281937385622_);" d="M196.1,210.9
		c7.3,8.3,18.6,14.2,33.4,14.2c0,0,0,0,0,0c9.3,0.7,21.2-4.2,33.6-19.8c16.8,7,32.1,17.6,48.7,27.6c-15.1,15-36,24.2-58.9,24.2
		c-28.5,0-53.7-14.3-68.8-36L196.1,210.9z"/>
	
		<linearGradient id="SVGID_00000047046382823169676470000007879230939660629901_" gradientUnits="userSpaceOnUse" x1="164.8222" y1="118.7494" x2="705.42" y2="308.9356">
		<stop  offset="0" style="stop-color:#00AAB2"/>
		<stop  offset="0.108" style="stop-color:#02A4AE"/>
		<stop  offset="0.2585" style="stop-color:#0691A1"/>
		<stop  offset="0.4332" style="stop-color:#0E748D"/>
		<stop  offset="0.5507" style="stop-color:#145C7C"/>
	</linearGradient>
	<path style="fill:url(#SVGID_00000047046382823169676470000007879230939660629901_);" d="M252.7,89.6c-46.3,0-83.8,37.5-83.8,83.8
		s37.5,83.8,83.8,83.8c23,0,43.8-9.3,58.9-24.2c21.7,13.1,44.8,24.7,74.1,24.7c46.5,0,84.3-37.7,84.3-84.3
		c0-46.5-37.7-84.3-84.3-84.3c-15.1,0-28.9,4.2-41,11.3l0,0c0,0,0,0,0,0c-1.5,0.9-2.9,1.8-4.3,2.7C314,117.3,286.9,89.6,252.7,89.6z
		 M227.3,197.6c12.8,0,24.5,3,35.6,7.7C224.4,254.2,190,197.6,227.3,197.6z M413.3,138.8c58.7,0.3,66.1,58.5,25.9,81.5
		c-29.3,16.8-72.4-1.5-104.1-20.7C350.7,174.5,374.8,138.6,413.3,138.8z M319.4,122.3c-2,2.4-3.8,4.8-5.6,7.3
		c-10.3,14.8-16.4,23.8-23.9,35.1c-16.4-18.7-20.3-39.3-5.1-46.7C292.8,114.1,305.4,116.1,319.4,122.3z"/>
	
		<linearGradient id="SVGID_00000150085379950912686740000016277614620659118247_" gradientUnits="userSpaceOnUse" x1="437.6064" y1="109.6533" x2="384.7835" y2="264.4262">
		<stop  offset="0" style="stop-color:#00AAB2"/>
		<stop  offset="0.1249" style="stop-color:#02A4AE"/>
		<stop  offset="0.2991" style="stop-color:#0691A1"/>
		<stop  offset="0.5013" style="stop-color:#0E748D"/>
		<stop  offset="0.6373" style="stop-color:#145C7C"/>
	</linearGradient>
	<path style="fill:url(#SVGID_00000150085379950912686740000016277614620659118247_);" d="M439.2,220.3
		c-20.3,11.7-47.4,6.4-72.6-4.3c44.9,14.8,34-33.1,1.6-58.6c12.3-10.9,27.1-18.6,45.1-18.5C472,139.1,479.3,197.3,439.2,220.3z"/>
	
		<linearGradient id="SVGID_00000062898911040914636290000011587453915083591331_" gradientUnits="userSpaceOnUse" x1="363.6514" y1="129.9711" x2="235.019" y2="126.8466">
		<stop  offset="0" style="stop-color:#00AAB2"/>
		<stop  offset="0.197" style="stop-color:#02A2AD"/>
		<stop  offset="0.4952" style="stop-color:#078E9E"/>
		<stop  offset="0.856" style="stop-color:#106C87"/>
		<stop  offset="1" style="stop-color:#145C7C"/>
	</linearGradient>
	<path style="fill:url(#SVGID_00000062898911040914636290000011587453915083591331_);" d="M272.7,92.4L272.7,92.4
		c25.2,6.7,46.7,22,67.8,10.7c-5.6,3.3-12.9,10-21.2,19.2c-14-6.2-26.5-8.2-34.6-4.3c-15.2,7.4-11.3,28,5.1,46.7
		C259.8,136.4,225.8,81.4,272.7,92.4z"/>
	
		<linearGradient id="SVGID_00000077325919924512293750000008377516985931414439_" gradientUnits="userSpaceOnUse" x1="419.8806" y1="284.0912" x2="47.9289" y2="108.9843">
		<stop  offset="0" style="stop-color:#00AAB2"/>
		<stop  offset="0.1085" style="stop-color:#02A4AE"/>
		<stop  offset="0.2598" style="stop-color:#0691A1"/>
		<stop  offset="0.4354" style="stop-color:#0E748D"/>
		<stop  offset="0.5535" style="stop-color:#145C7C"/>
	</linearGradient>
	<path style="fill:url(#SVGID_00000077325919924512293750000008377516985931414439_);" d="M229.4,225.1
		c-47.1-6.3-60.1-65.7-11.9-65.7s89.4,98.2,168.2,98.2c-66.4,0-101.4-60-158.5-60C201.9,197.6,209.7,223.8,229.4,225.1z"/>
</g>
<g>
	<g>
		<path class="st6" d="M705.6,218.8c-2.5-1.4-4.4-3.3-5.8-5.8c-1.4-2.5-2.1-5.3-2.1-8.5c0-3.2,0.7-6,2.1-8.5
			c1.4-2.5,3.3-4.4,5.8-5.8c2.5-1.4,5.3-2.1,8.4-2.1c2.2,0,4.2,0.4,6.2,1.2c1.9,0.8,3.6,1.9,5.1,3.4l-1.6,1.9
			c-1.3-1.3-2.8-2.2-4.4-2.9c-1.7-0.7-3.4-1-5.2-1c-2.6,0-5,0.6-7,1.7c-2,1.2-3.6,2.8-4.8,4.8c-1.1,2.1-1.7,4.5-1.7,7.1
			c0,2.7,0.6,5.1,1.7,7.2c1.1,2.1,2.7,3.7,4.8,4.9c2.1,1.2,4.4,1.7,7.1,1.7c3.8,0,7-1.3,9.7-3.8l1.6,1.9c-1.4,1.4-3.1,2.5-5.1,3.3
			c-2,0.8-4.1,1.1-6.2,1.1C710.9,220.9,708.1,220.2,705.6,218.8z"/>
		<path class="st6" d="M739.6,220.3h-2.7v-31.6h2.7V220.3z"/>
		<path class="st6" d="M749.6,188.7h25.1v2.5h-11.2v29.1h-2.7v-29.1h-11.2V188.7z"/>
		<path class="st6" d="M787.4,220.3h-2.7v-31.6h2.7V220.3z"/>
		<path class="st6" d="M804.1,205.6v12.1h18.4v2.6h-21.1v-31.6h20.6v2.5h-17.9v11.8h17v2.5H804.1z"/>
		<path class="st6" d="M831.9,217l1.4-2.1c3.3,2.3,6.8,3.5,10.3,3.5c2.6,0,4.7-0.6,6.3-1.7c1.6-1.1,2.4-2.7,2.4-4.7
			c0-1.2-0.3-2.3-0.8-3.1c-0.5-0.8-1.4-1.5-2.7-2.1c-1.3-0.6-3.1-1.1-5.4-1.6c-2.6-0.5-4.6-1.1-6.2-1.9c-1.5-0.7-2.6-1.6-3.3-2.7
			c-0.7-1.1-1.1-2.4-1.1-4c0-1.7,0.5-3.2,1.4-4.5c0.9-1.3,2.2-2.3,3.9-3c1.7-0.7,3.5-1,5.6-1c3.6,0,6.9,1,9.7,2.9l-1.4,2
			c-2.4-1.6-5.2-2.4-8.3-2.4c-2.4,0-4.4,0.5-5.9,1.6c-1.5,1.1-2.3,2.5-2.3,4.3c0,1.1,0.3,2,0.8,2.8c0.6,0.7,1.5,1.4,2.7,1.9
			c1.2,0.5,2.9,1,5.1,1.5c2.7,0.6,4.9,1.3,6.4,2.1c1.6,0.8,2.7,1.8,3.4,2.9c0.7,1.1,1,2.5,1,4.2c0,2.8-1.1,4.9-3.2,6.5
			c-2.1,1.6-4.9,2.4-8.3,2.4C839.2,220.8,835.4,219.6,831.9,217z"/>
	</g>
	<g>
		<g>
			<path class="st6" d="M537.1,155h16.6v12.5c-2.2,1.6-4.5,2.9-6.9,3.6c-2.4,0.8-5,1.1-7.9,1.1c-4.2,0-7.9-0.9-11.1-2.7
				c-3.2-1.8-5.6-4.3-7.3-7.7c-1.7-3.3-2.6-7.2-2.6-11.7c0-4.3,0.9-8.1,2.7-11.4c1.8-3.3,4.3-5.8,7.6-7.6c3.3-1.8,7-2.7,11.3-2.7
				c5.9,0,11.2,2,16,6l5.5-7.3c-2.8-2.4-6.1-4.4-9.8-5.7c-3.7-1.4-7.6-2.1-11.8-2.1c-6.1,0-11.5,1.3-16.3,4
				c-4.8,2.7-8.5,6.4-11.2,11.1c-2.7,4.7-4,10.1-4,16.1c0,6.1,1.3,11.5,3.8,16.2c2.6,4.7,6.1,8.3,10.8,10.8c4.6,2.6,10,3.8,16.1,3.8
				c4.9,0,9.4-0.8,13.4-2.4c4-1.6,7.6-4.1,10.9-7.4v-25.3h-25.7V155z"/>
		</g>
		<g>
			<path class="st6" d="M537.1,155h16.6v12.5c-2.2,1.6-4.5,2.9-6.9,3.6c-2.4,0.8-5,1.1-7.9,1.1c-4.2,0-7.9-0.9-11.1-2.7
				c-3.2-1.8-5.6-4.3-7.3-7.7c-1.7-3.3-2.6-7.2-2.6-11.7c0-4.3,0.9-8.1,2.7-11.4c1.8-3.3,4.3-5.8,7.6-7.6c3.3-1.8,7-2.7,11.3-2.7
				c5.9,0,11.2,2,16,6l5.5-7.3c-2.8-2.4-6.1-4.4-9.8-5.7c-3.7-1.4-7.6-2.1-11.8-2.1c-6.1,0-11.5,1.3-16.3,4
				c-4.8,2.7-8.5,6.4-11.2,11.1c-2.7,4.7-4,10.1-4,16.1c0,6.1,1.3,11.5,3.8,16.2c2.6,4.7,6.1,8.3,10.8,10.8c4.6,2.6,10,3.8,16.1,3.8
				c4.9,0,9.4-0.8,13.4-2.4c4-1.6,7.6-4.1,10.9-7.4v-25.3h-25.7V155z"/>
		</g>
		<g>
			<path class="st6" d="M593.9,120.6l-26.6,59.6h10.7l5.6-12.4H615l5.6,12.4h10.9l-26.6-59.6H593.9z M587.5,158.9l7.8-19l3.2-7.7
				l0.8-1.8h0.2c0.2,0.7,1.2,3.2,3,7.4c0.3,0.9,0.6,1.6,0.9,2l7.9,19.1H587.5z"/>
		</g>
		<g>
			<path class="st6" d="M593.9,120.6l-26.6,59.6h10.7l5.6-12.4H615l5.6,12.4h10.9l-26.6-59.6H593.9z M587.5,158.9l7.8-19l3.2-7.7
				l0.8-1.8h0.2c0.2,0.7,1.2,3.2,3,7.4c0.3,0.9,0.6,1.6,0.9,2l7.9,19.1H587.5z"/>
		</g>
		<g>
			<path class="st6" d="M671.8,153.4l-21.9-32.8h-9.7v59.6h9.9V144c0-2.4-0.1-4.4-0.3-6l0.3-0.1c1.8,2.7,3.3,4.9,4.3,6.4l15.6,23.2
				h3.4l15.8-23.3l1.3-1.9c1.5-2.3,2.6-3.9,3.1-4.8l0.2,0.1c-0.2,1.6-0.3,3.6-0.3,6v36.6h9.9v-59.6h-9.6L671.8,153.4z"/>
		</g>
		<g>
			<path class="st6" d="M671.8,153.4l-21.9-32.8h-9.7v59.6h9.9V144c0-2.4-0.1-4.4-0.3-6l0.3-0.1c1.8,2.7,3.3,4.9,4.3,6.4l15.6,23.2
				h3.4l15.8-23.3l1.3-1.9c1.5-2.3,2.6-3.9,3.1-4.8l0.2,0.1c-0.2,1.6-0.3,3.6-0.3,6v36.6h9.9v-59.6h-9.6L671.8,153.4z"/>
		</g>
		<g>
			<path class="st6" d="M750.7,153.4l-21.9-32.8h-9.7v59.6h9.9V144c0-2.4-0.1-4.4-0.3-6l0.3-0.1c1.8,2.7,3.3,4.9,4.3,6.4l15.6,23.2
				h3.4l15.8-23.3l1.3-1.9c1.5-2.3,2.6-3.9,3.1-4.8l0.2,0.1c-0.2,1.6-0.3,3.6-0.3,6v36.6h9.9v-59.6h-9.6L750.7,153.4z"/>
		</g>
		<g>
			<path class="st6" d="M750.7,153.4l-21.9-32.8h-9.7v59.6h9.9V144c0-2.4-0.1-4.4-0.3-6l0.3-0.1c1.8,2.7,3.3,4.9,4.3,6.4l15.6,23.2
				h3.4l15.8-23.3l1.3-1.9c1.5-2.3,2.6-3.9,3.1-4.8l0.2,0.1c-0.2,1.6-0.3,3.6-0.3,6v36.6h9.9v-59.6h-9.6L750.7,153.4z"/>
		</g>
		<g>
			<path class="st6" d="M817.5,120.6l-26.6,59.6h10.7l5.6-12.4h31.3l5.6,12.4H855l-26.6-59.6H817.5z M811,158.9l7.8-19l3.2-7.7
				l0.8-1.8h0.2c0.2,0.7,1.2,3.2,3,7.4c0.3,0.9,0.6,1.6,0.9,2l7.9,19.1H811z"/>
		</g>
		<g>
			<path class="st6" d="M817.5,120.6l-26.6,59.6h10.7l5.6-12.4h31.3l5.6,12.4H855l-26.6-59.6H817.5z M811,158.9l7.8-19l3.2-7.7
				l0.8-1.8h0.2c0.2,0.7,1.2,3.2,3,7.4c0.3,0.9,0.6,1.6,0.9,2l7.9,19.1H811z"/>
		</g>
	</g>
</g>
</svg>
